<svg id="Layer_1" data-name="Layer 1" xmlns="http://www.w3.org/2000/svg" viewBox="0 0 82.28 18.94">
    <defs>
        <style>
            .cls-1 {
                fill: #fff;
            }
        </style>
    </defs>
    
    <title>Avicii Name Logo</title>
    
    <polygon
        class="cls-1"
        points="16.68 0.09 0 16.76 0 18.94 2.2 18.94 16.68 4.48 16.68 18.94 19.78 18.94 19.78 0.06 16.68 0.06 16.68 0.09"/><rect class="cls-1" x="72.96" y="0.06" width="3.1" height="18.89"/><rect class="cls-1" x="79.17" y="0.06" width="3.1" height="18.89"/><rect class="cls-1" x="44.88" y="0.06" width="3.1" height="18.89"/><polygon class="cls-1" points="25.99 0.06 22.89 0.06 22.89 18.94 22.92 18.94 25.99 18.94 27.31 18.94 41.78 4.48 41.78 0.09 25.99 15.88 25.99 0.06"/><path class="cls-1" d="M60.53,3.12a6.32,6.32,0,0,1,6.15,4.83h3.18a9.45,9.45,0,1,0,0,3.11H66.65a6.33,6.33,0,1,1-6.12-7.94Z"
    />
</svg>
